<svg width="1472" height="648" viewBox="0 0 1472 648" fill="none" xmlns="http://www.w3.org/2000/svg">
<path d="M571.932 223.841V267.346H522.53V409H476.404V267.346H426.74V223.841H571.932ZM659.204 269.967H665.625V314.783H659.204C648.196 314.783 639.679 317.622 633.651 323.3C627.711 328.979 624.74 336.71 624.74 346.494V409H581.366V272.195H624.74V285.823C634.263 275.252 645.75 269.967 659.204 269.967ZM704.674 257.387C697.162 257.387 690.872 254.898 685.805 249.918C680.738 244.851 678.204 238.561 678.204 231.049C678.204 223.361 680.738 217.027 685.805 212.048C690.872 206.981 697.162 204.448 704.674 204.448C712.362 204.448 718.696 206.981 723.675 212.048C728.742 217.027 731.275 223.361 731.275 231.049C731.275 238.561 728.742 244.851 723.675 249.918C718.696 254.898 712.362 257.387 704.674 257.387ZM683.053 409V272.195H726.427V409H683.053ZM840.169 409L807.409 367.723L799.285 376.764V409H755.911V215.717H799.285V318.059L838.99 272.195H895.206L837.941 334.439L897.04 409H840.169ZM994.271 272.195H1037.78V409H994.271V397.731C983.701 407.428 970.99 412.276 956.139 412.276C943.909 412.276 932.77 409.175 922.724 402.972C912.678 396.682 904.815 388.077 899.137 377.157C893.458 366.15 890.619 353.963 890.619 340.597C890.619 327.231 893.458 315.088 899.137 304.168C904.815 293.161 912.678 284.556 922.724 278.354C932.77 272.064 943.909 268.919 956.139 268.919C970.99 268.919 983.701 273.767 994.271 283.464V272.195ZM943.69 361.695C949.281 367.286 956.314 370.081 964.788 370.081C973.261 370.081 980.294 367.286 985.885 361.695C991.476 356.104 994.271 349.071 994.271 340.597C994.271 332.124 991.476 325.091 985.885 319.5C980.294 313.822 973.261 310.983 964.788 310.983C956.314 310.983 949.281 313.822 943.69 319.5C938.187 325.091 935.435 332.124 935.435 340.597C935.435 349.071 938.187 356.104 943.69 361.695ZM1156.63 272.195H1205.11L1142.08 429.442C1138.07 439.838 1131.86 448.05 1123.48 454.078C1115.18 460.193 1105.92 463.25 1095.7 463.25C1089.14 463.25 1082.24 461.94 1074.99 459.319C1067.74 456.698 1061.49 453.248 1056.25 448.967L1072.9 414.897C1077.53 419.003 1082.68 421.056 1088.36 421.056C1094.91 421.056 1099.58 417.911 1102.38 411.621L1104.74 405.986L1051.67 272.195H1101.33L1128.98 352.391L1156.63 272.195ZM1307.98 272.195H1351.48V409H1307.98V397.731C1297.41 407.428 1284.7 412.276 1269.85 412.276C1257.62 412.276 1246.48 409.175 1236.43 402.972C1226.39 396.682 1218.52 388.077 1212.85 377.157C1207.17 366.15 1204.33 353.963 1204.33 340.597C1204.33 327.231 1207.17 315.088 1212.85 304.168C1218.52 293.161 1226.39 284.556 1236.43 278.354C1246.48 272.064 1257.62 268.919 1269.85 268.919C1284.7 268.919 1297.41 273.767 1307.98 283.464V272.195ZM1257.4 361.695C1262.99 367.286 1270.02 370.081 1278.5 370.081C1286.97 370.081 1294 367.286 1299.59 361.695C1305.18 356.104 1307.98 349.071 1307.98 340.597C1307.98 332.124 1305.18 325.091 1299.59 319.5C1294 313.822 1286.97 310.983 1278.5 310.983C1270.02 310.983 1262.99 313.822 1257.4 319.5C1251.89 325.091 1249.14 332.124 1249.14 340.597C1249.14 349.071 1251.89 356.104 1257.4 361.695Z" fill="black"/>
<path d="M295.436 246.365C316.239 271.731 324.132 300.655 325.333 316.348C329.695 364.328 306.704 401.767 294.664 414.489C276.944 410.945 264.791 403.698 260.928 400.518C289.007 375.982 293.301 338.725 291.938 323.163C290.142 302.365 281.968 285.407 273.005 273.042C283.867 267.859 292.154 258.156 295.436 246.365ZM213.46 242.222C215.556 254.443 222.924 264.862 233.14 271.056C226.966 279.402 222.868 287.69 221.058 292.494C206.882 292.494 188.344 302.717 180.847 307.828C187.096 279.377 199.868 257.767 213.46 242.222Z" fill="black"/>
<path d="M214.386 350.076C221.595 386.661 251.714 409.009 265.873 415.609C288.004 425.961 309.95 426.114 326.181 423.228C326.977 435.974 333.448 447.182 343.1 454.352C305.865 464.321 271.07 455.608 255.078 447.938C211.345 427.725 190.416 389.095 185.418 372.307C197.347 358.733 209.701 351.831 214.386 350.076ZM334.698 327.069C352.795 343.587 364.392 361.68 371.588 378.643C370.457 378.551 369.312 378.504 368.157 378.504C357.246 378.504 347.306 382.658 339.832 389.471C335.797 380.539 330.982 373.351 327.873 369.56C334.96 357.283 335.376 336.118 334.698 327.069Z" fill="black"/>
<path d="M180.473 424.644C192.112 426.382 202.818 425.754 208.426 424.83C215.514 437.106 233.637 448.049 241.812 451.986C213.524 460.967 188.001 460.531 167.546 456.315C175.526 448.66 180.495 437.89 180.496 425.959C180.496 425.519 180.487 425.081 180.473 424.644ZM176.947 322.598C216.318 294.831 260.237 296.021 277.275 300.088C283.066 317.205 282.867 331.355 282.043 336.29C246.756 324.24 212.343 339.151 199.547 348.112C181.119 360.984 170.245 378.035 164.25 392.751C157.123 387.202 148.164 383.896 138.433 383.896C135.855 383.896 133.332 384.129 130.882 384.573C142.354 353.287 163.804 331.59 176.947 322.598Z" fill="black"/>
<circle cx="254.913" cy="235.062" r="33.4338" fill="black"/>
<circle cx="368.156" cy="420.566" r="33.4338" fill="black"/>
<circle cx="138.434" cy="425.958" r="33.4338" fill="black"/>
</svg>
